<?xml version="1.0" standalone="no"?>
<!DOCTYPE svg PUBLIC "-//W3C//DTD SVG 20010904//EN"
 "http://www.w3.org/TR/2001/REC-SVG-20010904/DTD/svg10.dtd">
<svg version="1.0" xmlns="http://www.w3.org/2000/svg"
 width="587.000000pt" height="736.000000pt" viewBox="0 0 587.000000 736.000000"
 preserveAspectRatio="xMidYMid meet">

<g transform="translate(0.000000,736.000000) scale(0.100000,-0.100000)"
fill="#000000" stroke="none">
<path d="M0 3680 l0 -3680 2935 0 2935 0 0 3680 0 3680 -2935 0 -2935 0 0
-3680z m5700 0 l0 -3510 -2765 0 -2765 0 0 3510 0 3510 2765 0 2765 0 0 -3510z"/>
<path d="M230 7130 c0 -3 -1 -1556 -3 -3452 l-2 -3448 2713 0 2712 0 0 3450 0
3450 -2710 2 c-1491 2 -2710 1 -2710 -2z m5258 -150 c9 0 12 -666 12 -3299 l0
-3298 -64 -7 c-36 -3 -1190 -6 -2565 -6 l-2501 1 0 3304 c0 2193 3 3304 10
3307 5 2 1154 2 2552 1 1399 -2 2549 -3 2556 -3z"/>
<path d="M430 3680 l0 -3250 2505 2 2505 3 0 3245 0 3245 -2505 3 -2505 2 0
-3250z m2118 1453 c1 -265 6 -433 12 -433 5 0 34 -19 65 -42 l55 -41 -65 -68
-65 -67 0 -88 c0 -48 4 -84 8 -79 4 6 25 35 45 66 47 70 175 199 197 199 10 0
30 -4 46 -10 27 -9 71 -17 102 -19 9 -1 12 -36 12 -142 l0 -142 -152 7 c-84 3
-177 9 -205 12 l-53 6 0 -45 c0 -25 4 -48 8 -51 5 -3 69 -8 143 -11 74 -3 162
-8 197 -11 l62 -6 0 -124 0 -124 -210 0 -211 0 3 -445 3 -446 45 -40 c25 -22
60 -52 78 -66 17 -14 32 -28 32 -32 0 -3 -24 -19 -53 -35 -37 -19 -60 -26 -75
-22 -22 7 -22 5 -23 -91 -2 -299 6 -340 74 -398 68 -58 172 -86 328 -86 113 0
135 3 185 24 31 14 72 36 90 50 47 39 85 122 92 209 l7 72 131 17 c328 43 730
156 929 262 27 15 56 27 62 27 20 0 18 -469 -2 -545 -35 -138 -109 -225 -250
-297 -242 -124 -517 -210 -815 -254 -178 -27 -658 -27 -845 -1 -176 25 -357
67 -522 122 -282 94 -452 215 -531 377 -23 48 -45 111 -51 149 -6 36 -11 186
-11 332 l0 267 -42 21 c-48 24 -101 60 -96 64 2 2 34 -3 71 -10 51 -10 70 -10
73 -1 2 6 3 223 2 481 l-3 470 -20 -40 -20 -41 -60 11 c-33 5 -59 15 -58 20 4
14 78 129 95 146 54 55 68 86 68 150 l0 63 -46 -44 c-60 -58 -190 -232 -205
-274 l-12 -33 -79 20 c-54 13 -76 23 -70 31 100 134 207 238 323 312 l86 56 6
376 c4 206 7 449 7 539 l0 163 93 1 c50 1 265 5 477 9 212 3 419 6 460 6 l75
-1 3 -432z m1515 417 l387 0 0 -471 c0 -373 -3 -470 -12 -466 -7 3 -65 29
-128 57 -266 121 -490 182 -784 216 -215 24 -203 21 -200 47 1 12 3 159 3 326
l1 304 173 -6 c94 -4 346 -7 560 -7z m-685 -743 c22 -1 8 -18 -49 -63 -41 -33
-76 -49 -148 -70 -85 -24 -105 -26 -205 -21 -118 6 -209 30 -276 73 -43 27
-80 62 -80 74 0 13 199 18 495 13 138 -3 256 -5 263 -6z m250 -32 c105 -16
228 -43 332 -74 123 -37 275 -99 278 -113 1 -7 -13 -28 -32 -47 l-34 -33 -84
44 c-146 77 -361 160 -540 209 -21 5 -38 14 -38 19 0 13 2 13 118 -5z m-121
-106 c157 -41 394 -129 517 -191 l60 -30 -58 -24 c-32 -13 -85 -31 -117 -40
l-59 -17 -52 53 c-70 71 -173 142 -290 201 -54 27 -98 54 -98 59 0 14 9 13 97
-11z m-156 -81 c125 -51 323 -172 375 -229 15 -17 15 -18 -7 -24 -37 -8 -212
-35 -215 -32 -1 1 -9 18 -19 37 -31 60 -93 146 -151 209 -31 34 -52 61 -46 61
5 0 34 -10 63 -22z m-104 -92 c75 -78 159 -194 149 -204 -7 -6 -187 -20 -278
-21 l-58 -1 0 139 0 140 43 9 c69 16 72 15 144 -62z m1253 -32 c58 -35 120
-75 138 -91 l33 -28 -23 -31 c-13 -17 -48 -52 -78 -78 l-55 -47 -24 28 c-45
54 -127 138 -179 185 l-54 47 43 50 c50 58 38 60 199 -35z m-264 -124 c48 -38
159 -153 177 -186 6 -10 -7 -20 -50 -40 -58 -26 -295 -107 -297 -102 -16 39
-97 194 -117 223 -15 22 -25 43 -23 47 3 4 35 17 72 28 37 11 87 32 112 45 25
13 51 24 59 25 8 0 38 -18 67 -40z m635 -200 l30 -44 -103 -23 c-57 -12 -123
-24 -148 -28 -44 -6 -45 -5 -65 30 -19 37 -19 37 0 47 11 6 52 43 90 82 l70
72 48 -45 c27 -25 62 -66 78 -91z m-1020 68 c43 -60 113 -204 105 -217 -4 -6
-16 -11 -27 -11 -11 0 -52 -6 -92 -14 -40 -8 -109 -18 -154 -21 l-83 -7 0 36
c0 20 -12 79 -26 131 -15 53 -25 97 -23 99 5 5 219 44 246 45 16 1 32 -12 54
-41z m-382 -86 c16 -55 41 -163 41 -176 0 -10 -84 -15 -255 -17 l-190 -2 -3
121 -3 120 83 6 c46 3 130 9 188 14 58 4 108 6 112 4 4 -1 16 -33 27 -70z
m1028 -81 c10 -17 8 -19 -25 -25 -20 -3 -50 -5 -67 -5 -28 1 -27 2 20 25 60
29 57 28 72 5z m532 -136 c23 -14 53 -44 68 -67 26 -38 28 -49 28 -142 0 -92
-2 -105 -27 -147 -54 -92 -153 -153 -275 -170 -90 -13 -145 -3 -201 35 -67 45
-95 106 -96 205 -1 64 4 85 27 134 62 125 200 192 374 182 45 -3 73 -11 102
-30z m-634 -115 c63 -39 71 -156 14 -211 l-29 -28 41 -22 c41 -24 44 -30 53
-111 3 -26 11 -56 18 -67 7 -11 10 -22 7 -25 -2 -3 -45 -11 -94 -20 -107 -17
-110 -15 -120 75 -9 72 -22 82 -101 73 l-57 -7 7 -92 7 -92 -92 -12 c-50 -6
-94 -9 -97 -7 -3 3 -9 74 -14 158 -5 84 -12 200 -17 258 -4 58 -7 106 -5 108
1 2 60 10 130 18 71 8 136 16 144 18 8 2 50 4 94 5 62 1 85 -3 111 -19z m-581
-82 c3 -29 9 -117 13 -195 5 -120 3 -149 -11 -186 -34 -89 -110 -128 -262
-135 -116 -5 -180 10 -228 54 -51 48 -58 82 -64 290 l-5 192 92 7 c51 4 94 6
95 4 2 -2 8 -87 13 -188 8 -175 10 -184 32 -202 32 -26 95 -25 121 1 26 26 26
20 16 242 l-7 157 63 4 c35 2 77 4 94 5 30 2 31 1 38 -50z m-781 22 l138 0 -3
-67 -3 -68 -135 0 -135 0 -3 -32 -3 -32 118 -3 118 -3 3 -62 3 -62 -118 -3
-118 -3 -3 -32 c-2 -18 0 -33 5 -33 102 -5 171 -7 226 -9 l67 -1 0 -65 0 -65
-192 0 c-106 0 -216 3 -244 6 l-52 7 -4 261 c-3 143 -3 265 0 270 3 5 48 6
101 2 53 -3 158 -6 234 -6z m1667 -513 c0 -6 -113 -91 -154 -117 l-39 -24 -33
40 c-41 48 -42 54 -6 55 15 0 68 11 117 24 90 23 115 28 115 22z m-325 -139
c52 -58 54 -53 -34 -98 -45 -22 -114 -53 -153 -69 -144 -57 -571 -168 -614
-159 -9 1 44 21 117 42 73 22 169 55 214 74 44 18 87 36 95 39 33 14 228 135
275 172 53 41 64 41 100 -1z m-256 14 c-136 -103 -376 -195 -692 -266 -30 -7
-15 2 73 45 89 43 175 98 257 166 l51 43 129 10 c70 6 135 12 143 14 8 2 26 4
39 5 l24 1 -24 -18z m-529 -58 c-97 -64 -277 -146 -301 -139 -19 6 -14 15 57
86 l79 78 70 3 c38 2 88 4 110 5 l40 2 -55 -35z m-368 -35 c-61 -58 -65 -60
-110 -57 l-47 3 -3 52 -3 52 103 4 c57 1 108 4 113 5 6 1 -18 -26 -53 -59z
m-264 -1 c3 -52 4 -52 -86 -63 -51 -7 -54 -6 -117 42 -35 26 -64 51 -65 55 0
6 216 16 255 12 6 0 11 -21 13 -46z m190 -164 c83 -17 114 -31 180 -77 36 -26
40 -32 26 -40 -21 -12 -514 -22 -638 -12 l-99 7 29 25 c110 93 322 134 502 97z
m395 -91 c-7 -2 -19 -2 -25 0 -7 3 -2 5 12 5 14 0 19 -2 13 -5z"/>
<path d="M4767 3770 c-46 -40 -64 -103 -47 -164 20 -73 68 -103 135 -85 44 12
74 56 82 117 15 132 -84 208 -170 132z"/>
<path d="M4121 3661 c-10 -6 -11 -20 -6 -51 l7 -42 55 6 c85 10 115 35 93 77
-9 16 -22 19 -73 19 -34 0 -68 -4 -76 -9z"/>
</g>
</svg>
