<?xml version="1.0" encoding="UTF-8"?>
<svg xmlns="http://www.w3.org/2000/svg" xmlns:xlink="http://www.w3.org/1999/xlink" width="100px" height="100px" viewBox="0 0 100 100" version="1.1">
<g id="surface1">
<path style=" stroke:none;fill-rule:nonzero;fill:rgb(10.196078%,6.27451%,37.254902%);fill-opacity:1;" d="M 10.132812 0 L 89.867188 0 L 89.867188 100 L 10.132812 100 Z M 10.132812 0 "/>
<path style=" stroke:none;fill-rule:nonzero;fill:rgb(99.215686%,98.823529%,98.823529%);fill-opacity:1;" d="M 42.503906 24.367188 L 44.703125 24.367188 L 44.800781 24.414062 L 44.847656 33.496094 L 45.042969 33.445312 L 46.117188 33.351562 L 46.703125 33.351562 L 46.800781 33.398438 L 46.800781 33.300781 L 47.242188 33.300781 L 47.484375 33.351562 L 47.484375 33.25 L 48.460938 33.203125 L 49.488281 33.203125 L 52.5625 33.300781 L 52.808594 33.300781 L 52.953125 33.25 L 54.566406 33.25 L 55.296875 33.300781 L 55.296875 24.511719 L 64.234375 24.511719 L 68.96875 24.5625 L 70.53125 24.609375 L 70.582031 26.414062 L 70.628906 37.453125 L 71.3125 37.792969 L 72.484375 38.476562 L 72.972656 38.769531 L 73.511719 38.964844 L 74.828125 39.304688 L 76.636719 39.84375 L 78.441406 40.429688 L 79.46875 40.820312 L 80.492188 41.308594 L 80.980469 41.699219 L 81.324219 42.234375 L 81.46875 42.675781 L 81.519531 42.921875 L 81.519531 44.773438 L 81.46875 50.242188 L 81.46875 52.6875 L 81.324219 53.125 L 80.980469 53.515625 L 80.492188 53.859375 L 79.417969 54.394531 L 78.148438 54.929688 L 76.832031 55.421875 L 75.804688 55.761719 L 74.4375 56.152344 L 74 56.347656 L 73.121094 57.03125 L 72.386719 57.570312 L 71.507812 58.15625 L 71.3125 58.25 L 70.824219 57.617188 L 70.433594 57.128906 L 69.800781 57.226562 L 67.796875 57.570312 L 66.578125 57.765625 L 65.894531 58.15625 L 65.113281 58.640625 L 63.84375 59.328125 L 62.769531 59.8125 L 61.449219 60.304688 L 60.277344 60.695312 L 59.105469 61.035156 L 57.789062 61.375 L 56.519531 61.671875 L 56.421875 61.671875 L 56.421875 61.570312 L 57.933594 60.839844 L 58.714844 60.449219 L 59.546875 59.914062 L 60.472656 59.277344 L 61.011719 58.835938 L 61.644531 58.300781 L 61.695312 58.203125 L 61.597656 58.25 L 59.546875 58.398438 L 59.058594 58.691406 L 58.375 59.132812 L 57.542969 59.617188 L 56.421875 60.15625 L 55.054688 60.742188 L 54.808594 60.695312 L 54.46875 60.546875 L 54.710938 60.304688 L 55.101562 59.960938 L 55.542969 59.523438 L 55.933594 59.179688 L 56.566406 58.496094 L 54.613281 58.59375 L 53.832031 59.375 L 53.296875 59.8125 L 52.953125 60.058594 L 52.074219 60.007812 L 51.734375 59.960938 L 51.734375 58.640625 L 50.414062 58.691406 L 50.367188 59.960938 L 49.195312 60.109375 L 48.753906 60.203125 L 48.414062 60.203125 L 47.777344 59.765625 L 47.386719 59.421875 L 46.851562 58.984375 L 46.507812 58.742188 L 45.824219 58.742188 L 44.703125 58.789062 L 45.433594 59.472656 L 45.921875 59.914062 L 46.460938 60.351562 L 46.851562 60.644531 L 46.753906 60.839844 L 46.019531 61.230469 L 45.582031 61.523438 L 44.847656 61.476562 L 44.703125 61.425781 L 44.75 66.113281 L 44.996094 67.039062 L 45.289062 67.625 L 45.824219 68.210938 L 46.460938 68.601562 L 47.339844 68.945312 L 48.070312 69.140625 L 49.046875 69.289062 L 51.390625 69.289062 L 52.222656 69.140625 L 53.003906 68.847656 L 53.636719 68.507812 L 54.175781 68.066406 L 54.664062 67.429688 L 54.90625 66.894531 L 55.101562 66.210938 L 55.152344 65.867188 L 55.199219 64.5 L 55.785156 64.40625 L 58.03125 64.109375 L 59.691406 63.820312 L 61.742188 63.378906 L 63.792969 62.84375 L 65.941406 62.207031 L 67.210938 61.765625 L 68.382812 61.28125 L 69.847656 60.59375 L 70.53125 60.253906 L 70.628906 60.253906 L 70.679688 64.304688 L 70.726562 65.527344 L 70.726562 66.699219 L 70.582031 67.53125 L 70.335938 68.457031 L 69.945312 69.238281 L 69.605469 69.824219 L 69.066406 70.460938 L 68.578125 70.898438 L 67.945312 71.335938 L 67.164062 71.777344 L 65.796875 72.414062 L 64.820312 72.851562 L 63.453125 73.390625 L 61.695312 73.976562 L 60.230469 74.414062 L 58.324219 74.851562 L 56.226562 75.195312 L 54.613281 75.390625 L 53.539062 75.488281 L 51.148438 75.585938 L 48.753906 75.585938 L 46.410156 75.4375 L 44.359375 75.195312 L 42.457031 74.902344 L 40.015625 74.367188 L 37.867188 73.730469 L 36.597656 73.289062 L 35.230469 72.753906 L 34.449219 72.363281 L 33.519531 71.875 L 32.933594 71.484375 L 32.300781 70.996094 L 31.324219 70.117188 L 30.785156 69.433594 L 30.347656 68.75 L 29.90625 67.820312 L 29.664062 66.992188 L 29.417969 65.527344 L 29.417969 58.398438 L 28.980469 58.105469 L 28.246094 57.714844 L 27.320312 57.078125 L 27.417969 57.03125 L 28.148438 57.179688 L 29.566406 57.421875 L 29.566406 54.6875 L 29.613281 48.144531 L 29.613281 45.65625 L 29.566406 45.460938 L 29.515625 44.382812 L 29.371094 44.53125 L 29.027344 45.265625 L 28.980469 45.460938 L 28.539062 45.410156 L 27.417969 45.214844 L 27.222656 45.117188 L 27.417969 44.773438 L 28.492188 43.210938 L 28.882812 42.726562 L 29.320312 42.1875 L 29.515625 41.992188 L 29.566406 40.1875 L 29.222656 40.476562 L 28.832031 40.820312 L 28.734375 40.96875 L 28.636719 40.96875 L 28.539062 41.164062 L 28.148438 41.554688 L 27.613281 42.234375 L 26.976562 43.117188 L 26.34375 44.09375 L 26 44.679688 L 26 44.824219 L 26.148438 44.921875 L 25.804688 44.875 L 24.046875 44.484375 L 23.851562 44.382812 L 24.242188 43.796875 L 24.925781 42.96875 L 25.464844 42.382812 L 25.804688 41.992188 L 26.585938 41.257812 L 26.976562 40.917969 L 27.808594 40.28125 L 28.882812 39.601562 L 29.515625 39.210938 L 29.566406 39.0625 L 29.566406 31.054688 L 29.613281 27.050781 L 29.664062 24.609375 L 30.296875 24.5625 L 32.789062 24.511719 L 37.085938 24.460938 L 39.234375 24.414062 Z M 42.503906 24.367188 "/>
<path style=" stroke:none;fill-rule:nonzero;fill:rgb(10.196078%,6.27451%,37.254902%);fill-opacity:1;" d="M 10.132812 0 L 89.867188 0 L 89.867188 100 L 10.132812 100 Z M 17.261719 3.078125 L 13.207031 3.125 L 13.207031 96.875 L 86.792969 96.875 L 86.792969 3.125 L 83.421875 3.078125 Z M 17.261719 3.078125 "/>
<path style=" stroke:none;fill-rule:nonzero;fill:rgb(89.411765%,11.764706%,14.901961%);fill-opacity:1;" d="M 55.296875 24.511719 L 64.234375 24.511719 L 68.96875 24.5625 L 70.53125 24.609375 L 70.582031 26.414062 L 70.628906 37.453125 L 71.3125 37.792969 L 72.484375 38.476562 L 72.972656 38.769531 L 73.511719 38.964844 L 74.828125 39.304688 L 76.636719 39.84375 L 78.441406 40.429688 L 79.46875 40.820312 L 80.492188 41.308594 L 80.980469 41.699219 L 81.324219 42.234375 L 81.46875 42.675781 L 81.519531 42.921875 L 81.519531 44.773438 L 81.46875 50.242188 L 81.46875 52.6875 L 81.324219 53.125 L 80.980469 53.515625 L 80.492188 53.859375 L 79.417969 54.394531 L 78.148438 54.929688 L 76.832031 55.421875 L 75.804688 55.761719 L 74.4375 56.152344 L 74 56.347656 L 73.121094 57.03125 L 72.386719 57.570312 L 71.507812 58.15625 L 71.3125 58.25 L 70.824219 57.617188 L 70.433594 57.128906 L 69.800781 57.226562 L 67.796875 57.570312 L 66.578125 57.765625 L 65.894531 58.15625 L 65.113281 58.640625 L 63.84375 59.328125 L 62.769531 59.8125 L 61.449219 60.304688 L 60.277344 60.695312 L 59.105469 61.035156 L 57.789062 61.375 L 56.519531 61.671875 L 56.421875 61.671875 L 56.421875 61.570312 L 57.933594 60.839844 L 58.714844 60.449219 L 59.546875 59.914062 L 60.472656 59.277344 L 61.011719 58.835938 L 61.644531 58.300781 L 61.695312 58.203125 L 61.597656 58.25 L 59.546875 58.398438 L 59.058594 58.691406 L 58.375 59.132812 L 57.542969 59.617188 L 56.421875 60.15625 L 55.054688 60.742188 L 54.808594 60.695312 L 54.46875 60.546875 L 54.710938 60.304688 L 55.101562 59.960938 L 55.542969 59.523438 L 55.933594 59.179688 L 56.566406 58.496094 L 54.613281 58.59375 L 53.832031 59.375 L 53.296875 59.8125 L 52.953125 60.058594 L 52.074219 60.007812 L 51.734375 59.960938 L 51.734375 58.640625 L 50.414062 58.691406 L 50.367188 59.960938 L 49.195312 60.109375 L 48.753906 60.203125 L 48.414062 60.203125 L 47.777344 59.765625 L 47.386719 59.421875 L 46.851562 58.984375 L 46.507812 58.742188 L 44.652344 58.742188 L 44.652344 46.726562 L 49.78125 46.679688 L 50.367188 46.726562 L 50.367188 43.3125 L 49.488281 43.3125 L 47.09375 43.210938 L 45.09375 43.066406 L 44.75 43.015625 L 44.75 41.648438 L 45.679688 41.75 L 47.191406 41.84375 L 50.367188 41.945312 L 50.367188 38.183594 L 49.828125 38.132812 L 48.558594 37.890625 L 47.972656 37.792969 L 47.4375 38.28125 L 47.09375 38.574219 L 46.800781 38.914062 L 46.703125 38.914062 L 46.605469 39.109375 L 46.117188 39.648438 L 45.582031 40.332031 L 45.09375 41.0625 L 44.847656 41.453125 L 44.75 41.453125 L 44.75 39.304688 L 44.847656 39.015625 L 45.289062 38.523438 L 45.628906 38.132812 L 46.507812 37.257812 L 46.265625 37.0625 L 45.53125 36.570312 L 45.09375 36.179688 L 44.800781 36.230469 L 44.75 36.085938 L 44.75 33.886719 L 44.800781 33.496094 L 45.042969 33.496094 L 45.042969 33.445312 L 46.117188 33.351562 L 46.703125 33.351562 L 46.800781 33.398438 L 46.800781 33.300781 L 47.242188 33.300781 L 47.484375 33.351562 L 47.484375 33.25 L 48.460938 33.203125 L 49.488281 33.203125 L 52.5625 33.300781 L 52.808594 33.300781 L 52.953125 33.25 L 54.566406 33.25 L 55.296875 33.300781 Z M 55.296875 24.511719 "/>
<path style=" stroke:none;fill-rule:nonzero;fill:rgb(10.196078%,6.27451%,36.862745%);fill-opacity:1;" d="M 17.261719 3.078125 L 83.421875 3.078125 L 86.792969 3.125 L 86.792969 96.875 L 13.207031 96.875 L 13.207031 3.125 Z M 15.160156 5.078125 L 15.160156 94.921875 L 84.839844 94.921875 L 84.839844 5.078125 Z M 15.160156 5.078125 "/>
<path style=" stroke:none;fill-rule:nonzero;fill:rgb(12.54902%,10.980392%,11.764706%);fill-opacity:1;" d="M 55.296875 24.511719 L 64.234375 24.511719 L 68.96875 24.5625 L 70.53125 24.609375 L 70.582031 26.414062 L 70.628906 37.453125 L 71.3125 37.792969 L 72.484375 38.476562 L 72.972656 38.769531 L 73.21875 38.867188 L 73.265625 39.0625 L 73.902344 39.550781 L 74.585938 40.085938 L 75.21875 40.476562 L 78.980469 41.84375 L 79.761719 42.1875 L 80.101562 42.429688 L 80.152344 42.53125 L 80.152344 42.820312 L 79.90625 43.117188 L 79.175781 43.507812 L 78.441406 43.796875 L 77.027344 44.1875 L 76.929688 44.238281 L 76.585938 44.238281 L 76.246094 43.703125 L 75.707031 43.066406 L 75.367188 42.675781 L 74.78125 42.039062 L 74.585938 41.894531 L 74.195312 42.382812 L 73.753906 42.871094 L 73.167969 43.457031 L 72.4375 43.992188 L 72.191406 44.09375 L 72.679688 45.070312 L 71.851562 45.214844 L 71.265625 45.265625 L 71.070312 44.921875 L 70.726562 44.96875 L 69.898438 45.359375 L 69.359375 45.554688 L 65.84375 45.945312 L 64.136719 46.09375 L 63.207031 46.140625 L 62.328125 46.140625 L 62.425781 46.046875 L 63.402344 45.898438 L 63.941406 45.75 L 63.550781 44.824219 L 63.011719 43.796875 L 62.425781 42.871094 L 61.988281 42.234375 L 61.597656 42.285156 L 59.449219 42.675781 L 58.570312 42.820312 L 58.277344 42.820312 L 58.570312 43.703125 L 58.960938 45.214844 L 59.105469 46.191406 L 59.105469 46.4375 L 57.886719 46.53125 L 55.101562 46.632812 L 52.855469 46.679688 L 50.367188 46.679688 L 50.367188 43.3125 L 49.488281 43.3125 L 47.09375 43.210938 L 45.09375 43.066406 L 44.75 43.015625 L 44.75 41.648438 L 45.679688 41.75 L 47.191406 41.84375 L 50.367188 41.945312 L 50.367188 38.183594 L 49.828125 38.132812 L 48.558594 37.890625 L 47.972656 37.792969 L 47.4375 38.28125 L 47.09375 38.574219 L 46.800781 38.914062 L 46.703125 38.914062 L 46.605469 39.109375 L 46.117188 39.648438 L 45.582031 40.332031 L 45.09375 41.0625 L 44.847656 41.453125 L 44.75 41.453125 L 44.75 39.304688 L 44.847656 39.015625 L 45.289062 38.523438 L 45.628906 38.132812 L 46.507812 37.257812 L 46.265625 37.0625 L 45.53125 36.570312 L 45.09375 36.179688 L 44.800781 36.230469 L 44.75 36.085938 L 44.75 33.886719 L 44.800781 33.496094 L 45.042969 33.496094 L 45.042969 33.445312 L 46.117188 33.351562 L 46.703125 33.351562 L 46.800781 33.398438 L 46.800781 33.300781 L 47.242188 33.300781 L 47.484375 33.351562 L 47.484375 33.25 L 48.460938 33.203125 L 49.488281 33.203125 L 52.5625 33.300781 L 52.808594 33.300781 L 52.953125 33.25 L 54.566406 33.25 L 55.296875 33.300781 Z M 55.296875 24.511719 "/>
<path style=" stroke:none;fill-rule:nonzero;fill:rgb(80.784314%,65.490196%,44.705882%);fill-opacity:1;" d="M 12.378906 2.296875 L 87.621094 2.296875 L 87.621094 97.65625 L 87.574219 97.703125 L 12.425781 97.703125 L 12.378906 97.65625 L 12.328125 94.726562 L 12.328125 8.640625 Z M 17.261719 3.078125 L 13.207031 3.125 L 13.207031 96.875 L 86.792969 96.875 L 86.792969 3.125 L 83.421875 3.078125 Z M 17.261719 3.078125 "/>
<path style=" stroke:none;fill-rule:nonzero;fill:rgb(80.784314%,65.882353%,44.705882%);fill-opacity:1;" d="M 15.160156 5.078125 L 84.839844 5.078125 L 84.839844 94.921875 L 15.160156 94.921875 Z M 15.992188 5.859375 L 15.941406 6.738281 L 15.941406 94.09375 L 84.058594 94.09375 L 84.058594 5.859375 Z M 15.992188 5.859375 "/>
<path style=" stroke:none;fill-rule:nonzero;fill:rgb(12.54902%,10.980392%,11.764706%);fill-opacity:1;" d="M 76.832031 55.371094 L 77.027344 55.421875 L 76.585938 55.617188 L 76.195312 56.152344 L 75.707031 56.492188 L 75.21875 56.984375 L 74.390625 57.617188 L 74.097656 57.859375 L 73.902344 58.105469 L 73.363281 58.496094 L 72.632812 59.03125 L 71.703125 59.617188 L 71.070312 60.007812 L 70.679688 60.203125 L 70.679688 64.304688 L 70.628906 64.304688 L 70.628906 60.253906 L 69.359375 60.890625 L 67.945312 61.523438 L 66.675781 62.011719 L 64.820312 62.597656 L 63.0625 63.085938 L 61.109375 63.574219 L 58.910156 64.015625 L 56.957031 64.304688 L 55.199219 64.5 L 55.199219 65.867188 L 55.054688 66.601562 L 54.808594 67.234375 L 54.46875 67.773438 L 54.027344 68.261719 L 53.394531 68.703125 L 52.660156 69.042969 L 52.027344 69.238281 L 51.390625 69.335938 L 49.046875 69.335938 L 48.070312 69.1875 L 47.339844 68.992188 L 46.460938 68.652344 L 45.777344 68.210938 L 45.386719 67.820312 L 45.09375 67.382812 L 44.847656 66.75 L 44.703125 66.113281 L 44.703125 61.425781 L 45.582031 61.476562 L 46.363281 60.984375 L 46.800781 60.742188 L 46.851562 60.644531 L 46.65625 60.546875 L 46.117188 60.109375 L 45.386719 59.472656 L 44.996094 59.082031 L 44.652344 58.789062 L 44.652344 58.742188 L 46.410156 58.691406 L 46.65625 58.789062 L 47.144531 59.179688 L 47.777344 59.71875 L 48.414062 60.15625 L 49.046875 60.109375 L 49.535156 60.007812 L 50.367188 59.960938 L 50.367188 58.640625 L 51.734375 58.640625 L 51.734375 59.960938 L 52.953125 60.007812 L 53.34375 59.71875 L 54.027344 59.132812 L 54.613281 58.546875 L 56.617188 58.445312 L 56.324219 58.789062 L 55.785156 59.375 L 55.152344 59.960938 L 54.808594 60.304688 L 54.515625 60.5 L 54.808594 60.644531 L 55.054688 60.695312 L 56.519531 60.058594 L 57.347656 59.667969 L 58.519531 58.984375 L 59.058594 58.640625 L 59.546875 58.351562 L 61.695312 58.203125 L 61.597656 58.398438 L 60.863281 59.03125 L 60.132812 59.570312 L 59.546875 59.960938 L 58.617188 60.546875 L 57.835938 60.9375 L 56.519531 61.570312 L 56.421875 61.570312 L 56.421875 61.671875 L 57.203125 61.476562 L 58.519531 61.132812 L 59.9375 60.742188 L 61.207031 60.351562 L 62.769531 59.765625 L 63.941406 59.226562 L 65.210938 58.546875 L 66.136719 57.960938 L 66.578125 57.714844 L 69.554688 57.226562 L 70.289062 57.078125 L 70.484375 57.128906 L 71.117188 57.910156 L 71.3125 58.203125 L 71.898438 57.859375 L 72.730469 57.273438 L 73.609375 56.59375 L 74.144531 56.203125 L 75.269531 55.859375 L 76.441406 55.515625 Z M 76.832031 55.371094 "/>
<path style=" stroke:none;fill-rule:nonzero;fill:rgb(99.215686%,98.823529%,98.823529%);fill-opacity:1;" d="M 55.296875 24.511719 L 64.234375 24.511719 L 68.96875 24.5625 L 70.53125 24.609375 L 70.582031 26.414062 L 70.582031 37.402344 L 70.335938 37.304688 L 68.675781 36.523438 L 67.308594 35.9375 L 66.039062 35.449219 L 64.28125 34.863281 L 62.867188 34.472656 L 61.644531 34.179688 L 59.839844 33.835938 L 57.984375 33.59375 L 55.589844 33.351562 L 55.296875 33.300781 Z M 55.296875 24.511719 "/>
<path style=" stroke:none;fill-rule:nonzero;fill:rgb(89.411765%,10.588235%,14.117647%);fill-opacity:1;" d="M 29.515625 40.136719 L 29.613281 40.1875 L 29.566406 41.992188 L 29.222656 42.335938 L 28.832031 42.820312 L 28.148438 43.75 L 27.808594 44.289062 L 27.269531 45.070312 L 27.417969 45.164062 L 28.980469 45.460938 L 29.027344 45.164062 L 29.417969 44.382812 L 29.515625 44.289062 L 29.566406 44.382812 L 29.613281 45.460938 L 29.664062 45.65625 L 29.664062 48.144531 L 29.613281 54.6875 L 29.566406 57.421875 L 28.980469 57.375 L 27.808594 57.179688 L 27.320312 57.078125 L 26.539062 56.984375 L 24.976562 56.640625 L 22.925781 56.054688 L 21.703125 55.617188 L 20.289062 54.929688 L 19.605469 54.589844 L 19.066406 54.148438 L 18.824219 53.90625 L 18.628906 53.664062 L 18.480469 53.273438 L 18.480469 50.195312 L 18.578125 44.773438 L 18.628906 43.117188 L 18.921875 42.53125 L 19.261719 42.140625 L 19.945312 41.75 L 20.824219 41.359375 L 22.191406 40.917969 L 23.753906 40.527344 L 24.78125 40.382812 L 25.609375 40.332031 L 25.5625 40.476562 L 25.316406 40.722656 L 24.683594 41.308594 L 24.488281 41.554688 L 21.898438 42.335938 L 20.875 42.726562 L 20.386719 42.96875 L 20.289062 42.96875 L 20.386719 43.210938 L 20.628906 43.40625 L 21.460938 43.75 L 22.09375 43.945312 L 22.679688 44.042969 L 23.414062 44.238281 L 23.851562 44.335938 L 23.851562 44.433594 L 24.195312 44.484375 L 26 44.875 L 25.953125 44.679688 L 26.441406 43.847656 L 27.171875 42.773438 L 27.613281 42.1875 L 28.246094 41.40625 L 28.589844 41.0625 L 28.636719 40.96875 L 28.734375 40.96875 L 28.832031 40.773438 Z M 29.515625 40.136719 "/>
<path style=" stroke:none;fill-rule:nonzero;fill:rgb(99.607843%,99.215686%,99.215686%);fill-opacity:1;" d="M 75.804688 46.582031 L 77.417969 46.582031 L 77.953125 46.726562 L 78.539062 47.023438 L 79.027344 47.460938 L 79.417969 48 L 79.613281 48.535156 L 79.710938 49.070312 L 79.710938 50.539062 L 79.566406 51.21875 L 79.175781 52 L 78.6875 52.636719 L 78.296875 52.976562 L 77.613281 53.417969 L 76.976562 53.710938 L 76.097656 53.953125 L 75.121094 54.101562 L 74.292969 54.101562 L 73.609375 53.953125 L 72.828125 53.5625 L 72.289062 53.027344 L 71.949219 52.492188 L 71.703125 51.710938 L 71.605469 50.976562 L 71.65625 50.046875 L 71.996094 49.023438 L 72.386719 48.390625 L 72.777344 47.949219 L 73.316406 47.507812 L 73.804688 47.167969 L 74.78125 46.777344 L 75.367188 46.632812 Z M 75.804688 46.582031 "/>
<path style=" stroke:none;fill-rule:nonzero;fill:rgb(10.196078%,6.27451%,37.254902%);fill-opacity:1;" d="M 44.847656 64.40625 L 45.484375 64.453125 L 46.949219 64.5 L 46.949219 64.601562 L 47.191406 64.550781 L 47.679688 64.5 L 48.65625 64.550781 L 51.488281 64.601562 L 53.492188 64.550781 L 55.152344 64.5 L 55.199219 64.550781 L 55.199219 65.867188 L 55.054688 66.601562 L 54.808594 67.234375 L 54.46875 67.773438 L 54.027344 68.261719 L 53.394531 68.703125 L 52.660156 69.042969 L 52.027344 69.238281 L 51.390625 69.335938 L 49.046875 69.335938 L 48.070312 69.1875 L 47.339844 68.992188 L 46.460938 68.652344 L 45.777344 68.210938 L 45.386719 67.820312 L 45.09375 67.382812 L 44.847656 66.75 L 44.703125 66.113281 L 44.703125 64.453125 Z M 44.847656 64.40625 "/>
<path style=" stroke:none;fill-rule:nonzero;fill:rgb(99.607843%,99.215686%,99.215686%);fill-opacity:1;" d="M 68.433594 48.242188 L 68.96875 48.242188 L 69.554688 48.390625 L 69.945312 48.632812 L 70.238281 48.976562 L 70.386719 49.316406 L 70.433594 49.5625 L 70.433594 50.539062 L 70.238281 51.074219 L 69.507812 51.804688 L 69.945312 51.953125 L 70.238281 52.101562 L 70.628906 52.441406 L 70.777344 52.882812 L 70.875 53.710938 L 70.921875 54.445312 L 71.167969 54.492188 L 71.214844 54.785156 L 70.824219 54.882812 L 68.675781 55.226562 L 68.53125 54.882812 L 68.382812 54.101562 L 68.335938 53.417969 L 68.140625 53.171875 L 67.796875 52.976562 L 66.136719 53.078125 L 66.234375 54.492188 L 66.234375 55.617188 L 65.699219 55.710938 L 64.039062 55.90625 L 63.792969 55.859375 L 63.695312 54.445312 L 63.597656 52.832031 L 63.355469 49.316406 L 63.355469 48.828125 L 63.890625 48.730469 L 67.164062 48.339844 Z M 68.433594 48.242188 "/>
<path style=" stroke:none;fill-rule:nonzero;fill:rgb(99.607843%,99.215686%,99.215686%);fill-opacity:1;" d="M 61.449219 48.828125 L 61.839844 48.828125 L 61.890625 49.023438 L 62.035156 51.320312 L 62.085938 52.148438 L 62.085938 54.199219 L 61.839844 54.835938 L 61.5 55.371094 L 61.109375 55.710938 L 60.523438 56.054688 L 59.742188 56.296875 L 58.910156 56.445312 L 58.421875 56.492188 L 57.789062 56.492188 L 57.054688 56.445312 L 56.128906 56.203125 L 55.640625 55.957031 L 55.199219 55.617188 L 54.859375 55.125 L 54.664062 54.589844 L 54.566406 54.054688 L 54.515625 53.273438 L 54.46875 51.609375 L 54.46875 49.21875 L 54.859375 49.171875 L 55.980469 49.121094 L 56.910156 49.121094 L 56.957031 49.707031 L 57.105469 53.515625 L 57.25 54.148438 L 57.445312 54.394531 L 57.835938 54.589844 L 58.03125 54.640625 L 58.519531 54.640625 L 58.960938 54.539062 L 59.300781 54.296875 L 59.398438 54.296875 L 59.546875 53.664062 L 59.449219 51.5625 L 59.351562 49.953125 L 59.351562 48.976562 Z M 61.449219 48.828125 "/>
<path style=" stroke:none;fill-rule:nonzero;fill:rgb(99.607843%,99.215686%,99.215686%);fill-opacity:1;" d="M 46.800781 49.265625 L 50.757812 49.316406 L 53.050781 49.367188 L 53.050781 51.074219 L 52.953125 51.125 L 49.339844 51.125 L 49.390625 52.050781 L 52.464844 52.101562 L 52.5625 52.296875 L 52.5625 53.710938 L 49.390625 53.808594 L 49.390625 54.882812 L 52.953125 54.882812 L 53.394531 54.929688 L 53.441406 55.957031 L 53.441406 56.59375 L 53.394531 56.640625 L 50.074219 56.59375 L 47.4375 56.542969 L 46.898438 56.492188 L 46.851562 55.664062 L 46.800781 53.078125 Z M 46.800781 49.265625 "/>
<path style=" stroke:none;fill-rule:nonzero;fill:rgb(67.45098%,85.098039%,94.117647%);fill-opacity:1;" d="M 44.75 43.015625 L 45.777344 43.066406 L 47.09375 43.164062 L 50.367188 43.3125 L 50.367188 46.726562 L 44.652344 46.726562 L 44.652344 58.351562 L 44.605469 58.351562 L 44.605469 46.679688 L 44.75 46.679688 Z M 44.75 43.015625 "/>
<path style=" stroke:none;fill-rule:nonzero;fill:rgb(67.058824%,85.882353%,95.294118%);fill-opacity:1;" d="M 56.421875 43.015625 L 56.957031 43.015625 L 57.398438 44.382812 L 57.738281 45.945312 L 57.789062 46.484375 L 57.886719 46.53125 L 55.101562 46.632812 L 52.855469 46.679688 L 51.734375 46.679688 L 51.734375 43.3125 L 55.25 43.117188 Z M 56.421875 43.015625 "/>
<path style=" stroke:none;fill-rule:nonzero;fill:rgb(67.058824%,85.882353%,96.078431%);fill-opacity:1;" d="M 66.722656 40.429688 L 67.015625 40.476562 L 67.796875 41.113281 L 68.382812 41.648438 L 69.261719 42.53125 L 69.605469 42.921875 L 70.140625 43.601562 L 70.140625 43.796875 L 68.53125 44.484375 L 66.871094 45.070312 L 65.503906 45.460938 L 65.308594 45.460938 L 64.867188 44.484375 L 64.476562 43.703125 L 63.988281 42.820312 L 63.402344 41.945312 L 63.453125 41.75 L 65.308594 41.113281 L 66.527344 40.527344 Z M 66.722656 40.429688 "/>
<path style=" stroke:none;fill-rule:nonzero;fill:rgb(67.058824%,85.882353%,96.078431%);fill-opacity:1;" d="M 51.195312 34.523438 L 53.492188 34.570312 L 55.6875 34.667969 L 56.273438 34.71875 L 55.980469 35.058594 L 55.296875 35.644531 L 54.613281 36.085938 L 53.636719 36.425781 L 52.953125 36.621094 L 52.269531 36.765625 L 51.050781 36.867188 L 50.074219 36.816406 L 49.144531 36.671875 L 48.167969 36.425781 L 47.4375 36.179688 L 46.65625 35.742188 L 46.167969 35.351562 L 45.726562 34.914062 L 45.628906 34.71875 L 46.214844 34.667969 L 48.609375 34.570312 Z M 51.195312 34.523438 "/>
<path style=" stroke:none;fill-rule:nonzero;fill:rgb(67.058824%,85.882353%,96.078431%);fill-opacity:1;" d="M 47.972656 37.742188 L 48.753906 37.890625 L 50.367188 38.183594 L 50.367188 41.945312 L 48.753906 41.945312 L 47.191406 41.894531 L 45.09375 41.75 L 44.75 41.648438 L 44.75 41.453125 L 44.898438 41.308594 L 45.386719 40.527344 L 45.921875 39.84375 L 46.460938 39.210938 L 46.703125 38.914062 L 46.996094 38.671875 L 47.339844 38.28125 L 47.875 37.84375 Z M 47.972656 37.742188 "/>
<path style=" stroke:none;fill-rule:nonzero;fill:rgb(67.058824%,85.882353%,95.686275%);fill-opacity:1;" d="M 61.792969 42.1875 L 62.035156 42.234375 L 62.476562 42.871094 L 62.964844 43.652344 L 63.453125 44.53125 L 63.792969 45.265625 L 63.988281 45.75 L 63.84375 45.851562 L 62.816406 46.046875 L 62.035156 46.140625 L 62.183594 46.191406 L 62.183594 46.289062 L 61.546875 46.289062 L 59.839844 46.4375 L 59.105469 46.4375 L 58.863281 45.019531 L 58.472656 43.554688 L 58.277344 42.96875 L 58.277344 42.820312 L 61.109375 42.335938 Z M 61.792969 42.1875 "/>
<path style=" stroke:none;fill-rule:nonzero;fill:rgb(12.941176%,10.980392%,11.764706%);fill-opacity:1;" d="M 29.566406 37.453125 L 29.613281 37.453125 L 29.613281 39.0625 L 29.515625 39.257812 L 28.246094 40.039062 L 27.417969 40.625 L 26.878906 41.0625 L 26.148438 41.75 L 25.757812 42.089844 L 25.171875 42.726562 L 24.730469 43.261719 L 24.242188 43.847656 L 23.902344 44.382812 L 22.777344 44.140625 L 21.605469 43.847656 L 20.972656 43.601562 L 20.484375 43.359375 L 20.289062 43.164062 L 20.289062 42.96875 L 20.972656 42.625 L 22.191406 42.1875 L 24.488281 41.503906 L 24.925781 41.015625 L 25.269531 40.722656 L 25.464844 40.476562 L 25.5625 40.429688 L 25.609375 40.28125 L 26.050781 39.941406 L 26.734375 39.40625 L 27.464844 38.867188 L 28.394531 38.328125 L 29.027344 37.988281 L 29.125 37.988281 L 29.125 37.890625 L 29.417969 37.792969 L 29.515625 37.5 Z M 29.566406 37.453125 "/>
<path style=" stroke:none;fill-rule:nonzero;fill:rgb(67.058824%,85.882353%,95.686275%);fill-opacity:1;" d="M 50.21875 61.28125 L 51.976562 61.28125 L 53.246094 61.523438 L 54.273438 61.867188 L 55.003906 62.257812 L 55.589844 62.695312 L 55.933594 62.988281 L 55.933594 63.085938 L 54.859375 63.183594 L 53.296875 63.28125 L 50.464844 63.328125 L 47.632812 63.28125 L 45.679688 63.183594 L 45.921875 62.9375 L 46.3125 62.597656 L 46.996094 62.15625 L 47.730469 61.816406 L 48.511719 61.570312 L 49.878906 61.328125 Z M 50.21875 61.28125 "/>
<path style=" stroke:none;fill-rule:nonzero;fill:rgb(67.058824%,85.882353%,96.078431%);fill-opacity:1;" d="M 52.855469 37.9375 L 53.296875 37.9375 L 54.078125 38.671875 L 54.613281 39.210938 L 55.054688 39.746094 L 55.542969 40.382812 L 56.175781 41.359375 L 56.324219 41.699219 L 56.273438 41.75 L 54.371094 41.894531 L 52.90625 41.945312 L 51.734375 41.945312 L 51.734375 38.183594 L 52.171875 38.085938 Z M 52.855469 37.9375 "/>
<path style=" stroke:none;fill-rule:nonzero;fill:rgb(67.058824%,85.882353%,96.078431%);fill-opacity:1;" d="M 69.066406 38.183594 L 69.507812 38.328125 L 70.679688 38.964844 L 71.753906 39.601562 L 72.339844 39.992188 L 73.21875 40.625 L 73.558594 40.917969 L 73.460938 41.164062 L 72.925781 41.84375 L 72.242188 42.480469 L 71.851562 42.773438 L 71.507812 43.015625 L 71.3125 42.96875 L 70.777344 42.285156 L 69.898438 41.308594 L 69.359375 40.773438 L 68.824219 40.332031 L 68.285156 39.84375 L 67.945312 39.601562 L 67.992188 39.40625 L 68.382812 39.0625 L 68.824219 38.523438 Z M 69.066406 38.183594 "/>
<path style=" stroke:none;fill-rule:nonzero;fill:rgb(67.058824%,85.882353%,95.686275%);fill-opacity:1;" d="M 56.566406 36.28125 L 56.957031 36.328125 L 58.617188 36.765625 L 59.59375 37.0625 L 61.449219 37.695312 L 62.816406 38.234375 L 64.234375 38.867188 L 65.308594 39.40625 L 65.550781 39.601562 L 64.332031 40.085938 L 63.160156 40.476562 L 62.378906 40.671875 L 61.9375 40.136719 L 61.253906 39.453125 L 60.816406 39.109375 L 60.082031 38.574219 L 59.644531 38.28125 L 58.765625 37.742188 L 58.179688 37.402344 L 57.398438 37.011719 L 56.566406 36.671875 L 56.421875 36.523438 L 56.519531 36.328125 Z M 56.566406 36.28125 "/>
<path style=" stroke:none;fill-rule:nonzero;fill:rgb(89.019608%,12.941176%,15.294118%);fill-opacity:1;" d="M 75.609375 48.289062 L 76.148438 48.289062 L 76.585938 48.484375 L 76.929688 48.78125 L 77.125 49.171875 L 77.269531 49.707031 L 77.269531 50.734375 L 77.074219 51.515625 L 76.683594 51.953125 L 76.34375 52.148438 L 75.902344 52.296875 L 75.171875 52.296875 L 74.828125 52.148438 L 74.535156 51.90625 L 74.339844 51.609375 L 74.144531 51.074219 L 74.097656 50.828125 L 74.097656 50 L 74.242188 49.414062 L 74.535156 48.875 L 74.925781 48.535156 L 75.367188 48.339844 Z M 75.609375 48.289062 "/>
<path style=" stroke:none;fill-rule:nonzero;fill:rgb(67.058824%,85.882353%,95.294118%);fill-opacity:1;" d="M 68.871094 57.617188 L 69.066406 57.714844 L 69.605469 58.15625 L 70.140625 58.835938 L 70.140625 58.984375 L 69.019531 59.570312 L 67.894531 60.109375 L 66.675781 60.59375 L 65.210938 61.085938 L 63.550781 61.570312 L 61.890625 62.011719 L 59.742188 62.5 L 57.738281 62.84375 L 57.542969 62.792969 L 57.933594 62.648438 L 59.886719 62.15625 L 62.425781 61.328125 L 63.84375 60.742188 L 65.0625 60.15625 L 66.234375 59.472656 L 67.261719 58.835938 L 67.945312 58.351562 L 68.824219 57.664062 Z M 68.871094 57.617188 "/>
<path style=" stroke:none;fill-rule:nonzero;fill:rgb(67.843137%,85.490196%,94.509804%);fill-opacity:1;" d="M 66.527344 57.664062 L 66.773438 57.664062 L 66.578125 57.765625 L 65.894531 58.15625 L 65.113281 58.640625 L 63.84375 59.328125 L 62.769531 59.8125 L 61.449219 60.304688 L 60.277344 60.695312 L 59.105469 61.035156 L 57.789062 61.375 L 56.519531 61.671875 L 56.421875 61.671875 L 56.421875 61.570312 L 57.933594 60.839844 L 58.714844 60.449219 L 59.546875 59.914062 L 60.472656 59.277344 L 61.011719 58.835938 L 61.644531 58.300781 L 61.695312 58.203125 L 61.597656 58.25 L 61.058594 58.25 L 61.058594 58.203125 L 62.574219 58.054688 L 63.648438 58.007812 L 63.695312 57.960938 L 66.234375 57.714844 Z M 66.527344 57.664062 "/>
<path style=" stroke:none;fill-rule:nonzero;fill:rgb(67.058824%,85.882353%,95.294118%);fill-opacity:1;" d="M 29.515625 39.210938 L 29.613281 39.355469 L 29.613281 40.1875 L 29.417969 40.28125 L 28.785156 40.867188 L 28.734375 40.96875 L 28.636719 40.96875 L 28.539062 41.164062 L 28.148438 41.554688 L 27.613281 42.234375 L 26.976562 43.117188 L 26.34375 44.09375 L 26 44.679688 L 26 44.824219 L 26.148438 44.921875 L 25.804688 44.875 L 24.046875 44.484375 L 23.851562 44.382812 L 24.242188 43.796875 L 24.925781 42.96875 L 25.464844 42.382812 L 25.804688 41.992188 L 26.585938 41.257812 L 26.976562 40.917969 L 27.808594 40.28125 L 28.882812 39.601562 Z M 29.515625 39.210938 "/>
<path style=" stroke:none;fill-rule:nonzero;fill:rgb(67.058824%,85.882353%,95.686275%);fill-opacity:1;" d="M 57.886719 34.863281 L 59.839844 35.15625 L 61.402344 35.449219 L 63.550781 35.984375 L 64.820312 36.375 L 65.699219 36.71875 L 66.480469 37.011719 L 67.699219 37.5 L 67.847656 37.648438 L 67.457031 38.132812 L 67.066406 38.574219 L 66.820312 38.71875 L 66.578125 38.671875 L 66.089844 38.378906 L 64.574219 37.597656 L 63.355469 37.0625 L 62.085938 36.570312 L 60.863281 36.132812 L 59.886719 35.789062 L 59.007812 35.546875 L 57.984375 35.253906 L 57.691406 35.15625 L 57.835938 34.914062 Z M 57.886719 34.863281 "/>
<path style=" stroke:none;fill-rule:nonzero;fill:rgb(67.058824%,85.882353%,95.686275%);fill-opacity:1;" d="M 54.710938 37.351562 L 55.003906 37.402344 L 55.542969 37.597656 L 56.46875 37.988281 L 57.640625 38.574219 L 58.570312 39.109375 L 59.15625 39.5 L 59.839844 39.992188 L 60.523438 40.578125 L 60.914062 40.917969 L 60.914062 41.015625 L 60.425781 41.164062 L 59.007812 41.40625 L 57.738281 41.554688 L 57.496094 41.164062 L 57.152344 40.476562 L 56.664062 39.746094 L 56.078125 38.964844 L 55.492188 38.28125 L 54.90625 37.695312 L 54.710938 37.453125 Z M 54.710938 37.351562 "/>
<path style=" stroke:none;fill-rule:nonzero;fill:rgb(67.45098%,85.490196%,94.117647%);fill-opacity:1;" d="M 74.585938 41.84375 L 74.925781 42.140625 L 75.707031 42.96875 L 76.246094 43.652344 L 76.585938 44.140625 L 76.585938 44.238281 L 76.929688 44.238281 L 76.78125 44.335938 L 74.097656 44.921875 L 72.875 45.117188 L 72.679688 45.117188 L 72.191406 44.238281 L 72.191406 44.09375 L 72.777344 43.703125 L 73.316406 43.261719 L 74.046875 42.53125 Z M 74.585938 41.84375 "/>
<path style=" stroke:none;fill-rule:nonzero;fill:rgb(12.54902%,10.980392%,11.764706%);fill-opacity:1;" d="M 29.515625 40.136719 L 29.613281 40.1875 L 29.566406 41.992188 L 29.222656 42.335938 L 28.832031 42.820312 L 28.148438 43.75 L 27.808594 44.289062 L 27.269531 45.070312 L 26.636719 45.019531 L 26 44.875 L 25.953125 44.679688 L 26.441406 43.847656 L 27.171875 42.773438 L 27.613281 42.1875 L 28.246094 41.40625 L 28.589844 41.0625 L 28.636719 40.96875 L 28.734375 40.96875 L 28.832031 40.773438 Z M 29.515625 40.136719 "/>
<path style=" stroke:none;fill-rule:nonzero;fill:rgb(10.196078%,6.27451%,37.254902%);fill-opacity:1;" d="M 75.171875 40.476562 L 76.292969 40.867188 L 78.589844 41.699219 L 79.761719 42.1875 L 80.101562 42.429688 L 80.152344 42.53125 L 80.152344 42.820312 L 79.90625 43.117188 L 79.175781 43.507812 L 78.441406 43.796875 L 78.003906 43.898438 L 77.855469 43.554688 L 77.613281 43.3125 L 77.222656 42.820312 L 77.125 42.675781 L 77.027344 42.726562 L 76.734375 42.234375 L 76.34375 41.796875 L 76.34375 41.699219 L 76.246094 41.699219 L 76.246094 41.601562 L 76.050781 41.503906 L 75.757812 41.308594 L 75.757812 41.210938 L 75.5625 41.113281 L 75.269531 40.773438 L 75.074219 40.578125 Z M 75.171875 40.476562 "/>
<path style=" stroke:none;fill-rule:nonzero;fill:rgb(12.54902%,10.980392%,11.764706%);fill-opacity:1;" d="M 23.902344 56.347656 L 24.292969 56.398438 L 25.609375 56.738281 L 26.78125 56.984375 L 27.367188 57.078125 L 28.34375 57.714844 L 29.320312 58.25 L 29.46875 58.398438 L 29.46875 60.351562 L 29.417969 60.351562 L 29.371094 59.8125 L 28.980469 59.667969 L 28.296875 59.277344 L 27.171875 58.59375 L 26.441406 58.054688 L 25.804688 57.570312 L 24.925781 56.882812 L 24.683594 56.738281 L 24.683594 56.640625 L 24.292969 56.59375 L 23.902344 56.398438 Z M 23.902344 56.347656 "/>
<path style=" stroke:none;fill-rule:nonzero;fill:rgb(67.45098%,85.098039%,94.117647%);fill-opacity:1;" d="M 58.960938 58.300781 L 59.449219 58.300781 L 59.300781 58.445312 L 58.765625 58.789062 L 58.128906 59.179688 L 57.398438 59.617188 L 56.273438 60.15625 L 54.90625 60.742188 L 54.664062 60.695312 L 54.320312 60.546875 L 54.566406 60.304688 L 54.957031 59.960938 L 55.394531 59.523438 L 55.785156 59.179688 L 56.46875 58.445312 L 56.617188 58.398438 Z M 58.960938 58.300781 "/>
<path style=" stroke:none;fill-rule:nonzero;fill:rgb(10.196078%,6.27451%,37.254902%);fill-opacity:1;" d="M 24.242188 41.699219 L 24.292969 41.84375 L 24 42.234375 L 23.902344 42.234375 L 23.804688 42.429688 L 23.609375 42.726562 L 23.023438 43.40625 L 22.730469 43.847656 L 22.582031 44.042969 L 22.09375 43.992188 L 21.070312 43.652344 L 20.484375 43.359375 L 20.289062 43.164062 L 20.289062 42.96875 L 20.972656 42.625 L 22.191406 42.1875 L 23.023438 41.945312 L 23.65625 41.992188 L 24.097656 41.992188 L 24.195312 41.75 Z M 24.242188 41.699219 "/>
<path style=" stroke:none;fill-rule:nonzero;fill:rgb(67.45098%,85.490196%,94.509804%);fill-opacity:1;" d="M 48.167969 58.640625 L 50.367188 58.640625 L 50.367188 59.960938 L 49.195312 60.109375 L 48.753906 60.203125 L 48.414062 60.203125 L 47.777344 59.765625 L 47.386719 59.421875 L 46.851562 58.984375 L 46.605469 58.789062 L 46.605469 58.691406 Z M 48.167969 58.640625 "/>
<path style=" stroke:none;fill-rule:nonzero;fill:rgb(67.058824%,85.490196%,94.901961%);fill-opacity:1;" d="M 29.515625 41.992188 L 29.566406 41.992188 L 29.566406 44.382812 L 29.46875 44.382812 L 29.078125 45.164062 L 28.980469 45.460938 L 28.539062 45.410156 L 27.417969 45.214844 L 27.222656 45.117188 L 27.417969 44.773438 L 28.492188 43.210938 L 28.882812 42.726562 L 29.320312 42.1875 Z M 29.515625 41.992188 "/>
<path style=" stroke:none;fill-rule:nonzero;fill:rgb(67.058824%,85.882353%,95.686275%);fill-opacity:1;" d="M 44.703125 58.835938 L 45.09375 59.132812 L 45.582031 59.617188 L 46.117188 60.058594 L 46.753906 60.59375 L 46.851562 60.644531 L 46.753906 60.839844 L 46.019531 61.230469 L 45.582031 61.523438 L 44.847656 61.476562 L 44.703125 61.425781 Z M 44.703125 58.835938 "/>
<path style=" stroke:none;fill-rule:nonzero;fill:rgb(67.45098%,85.098039%,94.117647%);fill-opacity:1;" d="M 54.027344 58.496094 L 54.664062 58.496094 L 54.515625 58.742188 L 54.125 59.082031 L 53.492188 59.667969 L 52.953125 60.058594 L 52.074219 60.007812 L 51.734375 59.960938 L 51.683594 58.59375 L 52.464844 58.546875 Z M 54.027344 58.496094 "/>
<path style=" stroke:none;fill-rule:nonzero;fill:rgb(88.627451%,15.686275%,16.862745%);fill-opacity:1;" d="M 66.96875 50.046875 L 67.847656 50.046875 L 68.089844 50.148438 L 68.238281 50.34375 L 68.285156 50.828125 L 68.140625 51.125 L 67.847656 51.320312 L 67.210938 51.464844 L 66.480469 51.5625 L 65.992188 51.5625 L 65.941406 51.21875 L 65.894531 50.195312 L 65.941406 50.148438 Z M 66.96875 50.046875 "/>
<path style=" stroke:none;fill-rule:nonzero;fill:rgb(68.235294%,84.313725%,91.764706%);fill-opacity:1;" d="M 74.046875 56.152344 L 74.242188 56.203125 L 73.804688 56.492188 L 72.925781 57.179688 L 72.046875 57.8125 L 71.363281 58.25 L 71.117188 58.007812 L 70.628906 57.375 L 70.433594 57.128906 L 70.042969 57.128906 L 70.191406 57.03125 L 72.09375 56.640625 Z M 74.046875 56.152344 "/>
<path style=" stroke:none;fill-rule:nonzero;fill:rgb(67.058824%,85.882353%,95.686275%);fill-opacity:1;" d="M 45.042969 36.132812 L 45.433594 36.425781 L 45.875 36.765625 L 46.507812 37.15625 L 46.605469 37.257812 L 46.214844 37.597656 L 45.386719 38.429688 L 44.945312 38.964844 L 44.800781 39.0625 L 44.75 39.015625 L 44.800781 36.230469 Z M 45.042969 36.132812 "/>
<path style=" stroke:none;fill-rule:nonzero;fill:rgb(69.803922%,81.960784%,85.098039%);fill-opacity:1;" d="M 29.566406 54.6875 L 29.613281 54.6875 L 29.613281 57.46875 L 29.515625 57.46875 L 29.46875 57.765625 L 29.46875 58.105469 L 29.371094 58.105469 L 29.320312 58.25 L 29.078125 58.15625 L 28.246094 57.714844 L 27.320312 57.078125 L 27.417969 57.03125 L 28.148438 57.179688 L 29.566406 57.421875 Z M 29.566406 54.6875 "/>
<path style=" stroke:none;fill-rule:nonzero;fill:rgb(12.156863%,10.196078%,16.862745%);fill-opacity:1;" d="M 19.554688 54.589844 L 19.800781 54.640625 L 20.582031 55.03125 L 21.800781 55.617188 L 23.070312 56.054688 L 23.121094 56.203125 L 22.535156 56.101562 L 22.289062 55.957031 L 21.703125 55.761719 L 20.628906 55.320312 L 19.996094 54.980469 L 19.945312 54.835938 L 19.703125 54.734375 Z M 19.554688 54.589844 "/>
<path style=" stroke:none;fill-rule:nonzero;fill:rgb(72.156863%,81.960784%,83.921569%);fill-opacity:1;" d="M 70.824219 44.875 L 71.070312 44.875 L 71.265625 45.214844 L 71.507812 45.265625 L 71.363281 45.359375 L 69.605469 45.554688 L 69.457031 45.507812 L 69.898438 45.3125 Z M 70.824219 44.875 "/>
<path style=" stroke:none;fill-rule:nonzero;fill:rgb(13.333333%,10.980392%,12.54902%);fill-opacity:1;" d="M 29.46875 44.289062 L 29.566406 44.382812 L 29.566406 45.507812 L 29.222656 45.507812 L 28.980469 45.410156 L 29.027344 45.164062 L 29.417969 44.382812 Z M 29.46875 44.289062 "/>
<path style=" stroke:none;fill-rule:nonzero;fill:rgb(80.784314%,66.27451%,45.098039%);fill-opacity:1;" d="M 79.078125 47.507812 L 79.320312 47.753906 L 79.566406 48.144531 L 79.761719 48.875 L 79.808594 49.21875 L 79.808594 50.242188 L 79.710938 50.929688 L 79.566406 51.367188 L 79.515625 51.21875 L 79.664062 50.539062 L 79.664062 49.070312 L 79.515625 48.339844 L 79.320312 47.949219 L 79.078125 47.609375 Z M 79.078125 47.507812 "/>
<path style=" stroke:none;fill-rule:nonzero;fill:rgb(12.54902%,10.588235%,15.294118%);fill-opacity:1;" d="M 24.195312 41.601562 L 24.292969 41.648438 L 24.097656 41.992188 L 23.414062 42.039062 L 23.121094 41.992188 L 23.167969 41.894531 Z M 24.195312 41.601562 "/>
<path style=" stroke:none;fill-rule:nonzero;fill:rgb(80.784314%,66.27451%,45.098039%);fill-opacity:1;" d="M 77.125 49.316406 L 77.222656 49.460938 L 77.269531 49.707031 L 77.269531 50.734375 L 77.074219 51.515625 L 76.683594 51.953125 L 76.585938 51.90625 L 76.878906 51.609375 L 77.027344 51.320312 L 77.171875 50.683594 L 77.171875 49.757812 Z M 77.125 49.316406 "/>
<path style=" stroke:none;fill-rule:nonzero;fill:rgb(12.156863%,10.196078%,16.470588%);fill-opacity:1;" d="M 79.90625 42.382812 L 80.101562 42.429688 L 80.152344 42.53125 L 80.152344 42.820312 L 80.003906 43.015625 L 79.90625 43.015625 Z M 79.90625 42.382812 "/>
<path style=" stroke:none;fill-rule:nonzero;fill:rgb(12.156863%,9.803922%,18.039216%);fill-opacity:1;" d="M 63.0625 45.945312 L 63.257812 45.996094 L 63.207031 46.140625 L 62.328125 46.140625 L 62.425781 46.046875 Z M 63.0625 45.945312 "/>
</g>
</svg>
